<?xml version="1.0" encoding="UTF-8"?>
<!DOCTYPE svg PUBLIC "-//W3C//DTD SVG 1.1//EN" "http://www.w3.org/Graphics/SVG/1.1/DTD/svg11.dtd">
<svg version="1.1" xmlns="http://www.w3.org/2000/svg" xmlns:xlink="http://www.w3.org/1999/xlink" x="0" y="0" width="150" height="150" viewBox="0, 0, 150, 150">
  <defs>
    <linearGradient id="Gradient_1" gradientUnits="userSpaceOnUse" x1="65.779" y1="91.486" x2="-3.076" y2="29.489">
      <stop offset="0" stop-color="#4AC7F3"/>
      <stop offset="0.129" stop-color="#4AC7F3"/>
      <stop offset="0.785" stop-color="#364B9C"/>
      <stop offset="1" stop-color="#364B9C"/>
    </linearGradient>
    <linearGradient id="Gradient_2" gradientUnits="userSpaceOnUse" x1="65.758" y1="73.535" x2="27.461" y2="114.603">
      <stop offset="0" stop-color="#57C9F0"/>
      <stop offset="1" stop-color="#364B9C"/>
    </linearGradient>
    <linearGradient id="Gradient_3" gradientUnits="userSpaceOnUse" x1="84.221" y1="91.07" x2="153.075" y2="29.074">
      <stop offset="0" stop-color="#4AC7F3"/>
      <stop offset="0.129" stop-color="#4AC7F3"/>
      <stop offset="1" stop-color="#364B9C"/>
    </linearGradient>
    <linearGradient id="Gradient_4" gradientUnits="userSpaceOnUse" x1="83.117" y1="73.876" x2="122.794" y2="113.553">
      <stop offset="0" stop-color="#57C9F0"/>
      <stop offset="1" stop-color="#364B9C"/>
    </linearGradient>
  </defs>
  <g id="Layer_1">
    <g>
      <path d="M3.45,23.609 C2.647,23.779 1.467,24.24 0.679,25.363 L0.679,25.363 C-0.548,27.116 -0.197,29.399 2.433,33.081 L2.433,33.081 C5.905,37.94 7.342,38.341 11.201,43.955 L11.201,43.955 C14.847,49.259 13.307,54.125 13.307,56.929 L13.307,56.929 L13.307,68.504 C13.307,70.784 14.005,72.362 15.409,75.167 L15.409,75.167 C16.814,77.972 18.741,78.323 21.022,78.323 L21.022,78.323 C29.089,78.32 72.579,83.937 72.579,83.937 L72.579,83.937 L70.826,73.766 C70.826,73.766 60.631,56.708 43.996,42.2 L43.996,42.2 C28.912,29.046 25.581,27.821 15.759,25.363 L15.759,25.363 C10.246,23.986 6.283,23.602 4.298,23.531 L4.298,23.531 C4.262,23.522 4.186,23.519 4.079,23.523 L4.079,23.523 C3.903,23.519 3.748,23.517 3.609,23.517 L3.609,23.517 C2.687,23.517 2.594,23.606 3.45,23.609" fill="url(#Gradient_1)"/>
      <path d="M35.049,77.448 C33.822,77.976 30.132,79.602 24.003,83.585 L24.003,83.585 C20.494,85.867 18.567,89.374 18.39,93.055 L18.39,93.055 C18.239,96.214 19.217,100.274 21.022,103.404 L21.022,103.404 C23.65,107.962 27.862,114.625 32.419,119.185 L32.419,119.185 C37.593,124.358 42.416,126.9 44.345,126.9 L44.345,126.9 C46.274,126.9 50.133,124.27 53.464,121.466 L53.464,121.466 C56.796,118.66 60.655,114.451 63.986,110.241 L63.986,110.241 C67.318,106.033 69.597,102.175 71.701,97.79 L71.701,97.79 C73.807,93.407 75.385,87.444 75.385,87.444 L75.385,87.444 C75.385,87.444 72.227,78.323 70.651,78.323 L70.651,78.323 C69.073,78.323 63.811,77.448 60.655,77.273 L60.655,77.273 C57.499,77.096 55.745,77.273 53.114,77.273 L53.114,77.273 C50.485,77.273 46.098,76.92 45.397,76.92 L45.397,76.92 C44.696,76.92 36.278,76.92 35.049,77.448" fill="url(#Gradient_2)"/>
      <path d="M78.716,77.71 C78.716,82.117 77.03,85.689 74.947,85.689 C72.865,85.689 71.177,82.117 71.177,77.71 C71.177,73.305 72.865,69.733 74.947,69.733 C77.03,69.733 78.716,73.305 78.716,77.71" fill="#48C7F3"/>
      <path d="M145.921,23.108 C145.814,23.102 145.739,23.106 145.702,23.114 L145.702,23.114 C143.719,23.185 139.753,23.569 134.239,24.947 L134.239,24.947 C124.42,27.402 121.087,28.628 106.006,41.78 L106.006,41.78 C89.368,56.289 79.174,73.346 79.174,73.346 L79.174,73.346 L77.421,83.517 C77.421,83.517 120.911,77.904 128.978,77.907 L128.978,77.907 C131.258,77.907 133.188,77.557 134.591,74.75 L134.591,74.75 C135.992,71.944 136.695,70.368 136.695,68.085 L136.695,68.085 L136.695,56.511 C136.695,53.704 135.152,48.84 138.799,43.533 L138.799,43.533 C142.657,37.924 144.096,37.522 147.568,32.662 L147.568,32.662 C150.198,28.98 150.547,26.701 149.322,24.947 L149.322,24.947 C148.535,23.824 147.356,23.363 146.553,23.194 L146.553,23.194 C147.406,23.191 147.312,23.1 146.389,23.1 L146.389,23.1 C146.251,23.1 146.095,23.103 145.921,23.108" fill="url(#Gradient_3)"/>
      <path d="M96.887,76.854 C94.255,76.854 92.5,76.68 89.344,76.854 L89.344,76.854 C86.188,77.031 80.928,77.907 79.35,77.907 L79.35,77.907 C77.772,77.907 74.615,87.027 74.615,87.027 L74.615,87.027 C74.615,87.027 76.192,92.987 78.296,97.372 L78.296,97.372 C80.403,101.757 82.681,105.614 86.014,109.825 L86.014,109.825 C89.344,114.031 93.203,118.245 96.538,121.049 L96.538,121.049 C99.869,123.853 103.726,126.484 105.655,126.484 L105.655,126.484 C107.584,126.484 112.407,123.942 117.58,118.766 L117.58,118.766 C122.139,114.207 126.348,107.545 128.979,102.984 L128.979,102.984 C130.782,99.857 131.76,95.795 131.61,92.639 L131.61,92.639 C131.433,88.955 129.503,85.449 125.996,83.168 L125.996,83.168 C119.87,79.186 116.177,77.557 114.95,77.031 L114.95,77.031 C113.721,76.505 105.305,76.505 104.602,76.505 L104.602,76.505 C103.902,76.505 99.517,76.854 96.887,76.854" fill="url(#Gradient_4)"/>
    </g>
  </g>
</svg>
